<svg id="Layer_1" data-name="Layer 1" xmlns="http://www.w3.org/2000/svg" viewBox="0 0 1080 540"><defs><style>.cls-1,.cls-2,.cls-3{fill:#607d3b;}.cls-2{opacity:0.7;}.cls-3{opacity:0.3;}.cls-4{fill:#264e37;}</style></defs><polygon class="cls-1" points="435.51 237.88 433.59 243.2 366.77 219.17 360.26 216.83 349.77 213.07 343.26 210.72 334.85 207.7 285.84 242.01 285.84 316.77 322.19 316.77 322.19 322.43 280.18 322.43 280.18 239.07 334 201.39 348.93 206.76 355.44 209.1 365.92 212.87 372.43 215.21 435.51 237.88"/><polygon class="cls-2" points="355.44 209.1 361.65 204.75 372.13 208.52 378.64 210.86 431.87 229.99 433.78 224.67 384.31 206.89 377.8 204.55 360.81 198.44 348.93 206.76 355.44 209.1"/><polygon class="cls-3" points="384.31 206.89 389.62 203.17 430.08 217.72 432 212.4 388.78 196.86 377.8 204.55 384.31 206.89"/><path class="cls-4" d="M393.22,330.46a25.15,25.15,0,0,0,6.94-3.71,23.32,23.32,0,0,0,5.11-5.39,19.86,19.86,0,0,0,2.94-6.59l18.64,4.34A40.59,40.59,0,0,1,421.1,331a36.88,36.88,0,0,1-9.32,9.11,42.13,42.13,0,0,1-12.53,5.74,56.38,56.38,0,0,1-15.27,2A68.2,68.2,0,0,1,364,345a41.24,41.24,0,0,1-27.25-25.29q-4-9.94-4-23.95t4.06-23.67a41,41,0,0,1,26.55-25,63.33,63.33,0,0,1,19.26-2.87,62.06,62.06,0,0,1,16,2,46.19,46.19,0,0,1,13,5.53,34.56,34.56,0,0,1,9.45,8.9,36.79,36.79,0,0,1,5.67,11.91l-18.63,4.34a23.32,23.32,0,0,0-3-6.58,19.06,19.06,0,0,0-5.18-5.26,28,28,0,0,0-7.29-3.5,29.69,29.69,0,0,0-9.17-1.33A34.08,34.08,0,0,0,372.35,262a22.87,22.87,0,0,0-9.31,6,30.37,30.37,0,0,0-6.38,11.07,61,61,0,0,0,0,33.76,28.53,28.53,0,0,0,6.59,11.07A25,25,0,0,0,373,330a36,36,0,0,0,11.7,1.89A25,25,0,0,0,393.22,330.46Z"/><path class="cls-4" d="M455.56,344.05a34.86,34.86,0,0,1-13-8.06,34.42,34.42,0,0,1-8-12.74,49.12,49.12,0,0,1-2.73-16.88q0-18.92,10.71-29t30.47-10.09a55.35,55.35,0,0,1,17.58,2.6A37.16,37.16,0,0,1,504,277.44a32.62,32.62,0,0,1,8.47,12.26,44,44,0,0,1,3,16.67,45.74,45.74,0,0,1-3,16.88A34.85,34.85,0,0,1,504,336a37.42,37.42,0,0,1-13.31,8.06,51.55,51.55,0,0,1-17.58,2.8A51,51,0,0,1,455.56,344.05ZM482,330.53a18.5,18.5,0,0,0,6.65-5,21.54,21.54,0,0,0,4.13-8,38.49,38.49,0,0,0,1.4-10.92,36.56,36.56,0,0,0-1.4-10.65,20.92,20.92,0,0,0-4.13-7.77,17.45,17.45,0,0,0-6.65-4.77,22.76,22.76,0,0,0-8.69-1.61q-9.94,0-15.2,6.31t-5.25,18.63a40,40,0,0,0,1.33,10.78,22,22,0,0,0,3.92,8,17.39,17.39,0,0,0,6.45,5,22.6,22.6,0,0,0,17.44,0Z"/><path class="cls-4" d="M576.17,267.28a32.1,32.1,0,0,1,11.63,2,23.83,23.83,0,0,1,8.47,5.47,23.5,23.5,0,0,1,5.26,8.47A31.49,31.49,0,0,1,603.35,294v51H582.47V299.22a20.33,20.33,0,0,0-1.33-7.56,17.13,17.13,0,0,0-3.57-5.68,14.85,14.85,0,0,0-5.25-3.5,17.26,17.26,0,0,0-6.38-1.19,18.83,18.83,0,0,0-6.79,1.26,17,17,0,0,0-5.81,3.71,19.34,19.34,0,0,0-4.07,5.82,17.37,17.37,0,0,0-1.54,7.28V345H526.86V269.38h20l.84,16.81a27.66,27.66,0,0,1,4-7.7,26.45,26.45,0,0,1,14.42-9.88A36.87,36.87,0,0,1,576.17,267.28Z"/><path class="cls-4" d="M624.36,284.51H609.79V269.38h14.57V247h19.47v22.41h17.65v15.13H643.83V324.3a3.46,3.46,0,0,0,3.92,3.92h13.73V345H637.39q-6.58,0-9.81-3.22T624.36,332Z"/><path class="cls-1" d="M692,345H671.15V283.25q0-7,3.57-10.43t10.57-3.44h35.3v18.08H692Z"/><path class="cls-1" d="M805.21,309H742.59l.7-11.49h43.43a14.15,14.15,0,0,0-2-6.16,17.62,17.62,0,0,0-4.27-4.84,18.39,18.39,0,0,0-6.09-3.08,25.76,25.76,0,0,0-7.43-1,22.78,22.78,0,0,0-9.38,1.82,18.57,18.57,0,0,0-6.8,5.12,22.43,22.43,0,0,0-4.13,7.77,34.39,34.39,0,0,0,.14,19.89,22,22,0,0,0,4.34,7.78,18.4,18.4,0,0,0,6.94,4.83,24.11,24.11,0,0,0,9.17,1.68,21.58,21.58,0,0,0,10.86-2.59,14.4,14.4,0,0,0,6.37-6.79h19.62A26.59,26.59,0,0,1,800,332.35a30.42,30.42,0,0,1-8,8.06,36.22,36.22,0,0,1-11.28,5.11,54.36,54.36,0,0,1-14.29,1.75,53.1,53.1,0,0,1-17.93-2.8,36.56,36.56,0,0,1-13.24-8,33.73,33.73,0,0,1-8.19-12.6,46.9,46.9,0,0,1-2.8-16.67,45.88,45.88,0,0,1,2.8-16.46,34.86,34.86,0,0,1,8.12-12.61,35.45,35.45,0,0,1,13.17-8.06,52.42,52.42,0,0,1,17.65-2.8,49.31,49.31,0,0,1,16.32,2.52A35.1,35.1,0,0,1,794.56,277a32,32,0,0,1,7.84,11.21,39,39,0,0,1,3,14.7v2.25C805.35,306.32,805.3,307.63,805.21,309Z"/></svg>