<svg id="Layer_1" data-name="Layer 1" xmlns="http://www.w3.org/2000/svg" viewBox="260 180 590 180"><defs><style>.cls-2,.cls-3,.cls-4{fill:#607d3b;}.cls-3{opacity:0.7;}.cls-4{opacity:0.3;}.cls-5{fill:#eaeaea;}</style></defs><polygon class="cls-2" points="435.51 236.96 433.59 242.28 366.77 218.25 360.26 215.91 349.77 212.15 343.26 209.79 334.85 206.78 285.84 241.09 285.84 315.85 322.19 315.85 322.19 321.5 280.18 321.5 280.18 238.15 334 200.47 348.93 205.84 355.44 208.18 365.92 211.94 372.43 214.28 435.51 236.96"/><polygon class="cls-3" points="355.44 208.18 361.65 203.82 372.13 207.59 378.64 209.94 431.87 229.06 433.78 223.75 384.31 205.97 377.8 203.63 360.81 197.51 348.93 205.84 355.44 208.18"/><polygon class="cls-4" points="384.31 205.97 389.62 202.25 430.08 216.79 432 211.47 388.78 195.94 377.8 203.63 384.31 205.97"/><path class="cls-5" d="M393.22,329.54a25.17,25.17,0,0,0,6.94-3.72,23.12,23.12,0,0,0,5.11-5.39,19.81,19.81,0,0,0,2.94-6.58l18.64,4.34a40.34,40.34,0,0,1-5.75,11.91,36.8,36.8,0,0,1-9.31,9.1A42.32,42.32,0,0,1,399.25,345a56.78,56.78,0,0,1-15.27,2A68.2,68.2,0,0,1,364,344a41.24,41.24,0,0,1-27.25-25.29q-4-9.94-4-23.95t4.06-23.68a41,41,0,0,1,26.55-25,63,63,0,0,1,19.26-2.87,62.06,62.06,0,0,1,16,2,46.19,46.19,0,0,1,13,5.53,34.41,34.41,0,0,1,9.45,8.9,37,37,0,0,1,5.68,11.9l-18.64,4.35a23.37,23.37,0,0,0-3-6.59,19.16,19.16,0,0,0-5.18-5.25,27.39,27.39,0,0,0-7.29-3.5,29.69,29.69,0,0,0-9.17-1.33A33.82,33.82,0,0,0,372.35,261a22.87,22.87,0,0,0-9.31,6,30.2,30.2,0,0,0-6.38,11.07,51.59,51.59,0,0,0-2.38,16.81,52.16,52.16,0,0,0,2.38,16.95A28.69,28.69,0,0,0,363.25,323a25.06,25.06,0,0,0,9.73,6.1,36,36,0,0,0,11.7,1.89A25.29,25.29,0,0,0,393.22,329.54Z"/><path class="cls-5" d="M455.56,343.12a34.84,34.84,0,0,1-13-8.05,34.38,34.38,0,0,1-8-12.75,49,49,0,0,1-2.73-16.88q0-18.9,10.71-29t30.47-10.09A55.36,55.36,0,0,1,490.65,269,37.18,37.18,0,0,1,504,276.52a32.72,32.72,0,0,1,8.48,12.25,44.3,44.3,0,0,1,2.94,16.67,45.87,45.87,0,0,1-2.94,16.88A35,35,0,0,1,504,335.07a37.4,37.4,0,0,1-13.31,8.05,51.54,51.54,0,0,1-17.58,2.81A51,51,0,0,1,455.56,343.12ZM482,329.61a18.53,18.53,0,0,0,6.65-5,21.42,21.42,0,0,0,4.13-8,38.56,38.56,0,0,0,1.4-10.93,36.53,36.53,0,0,0-1.4-10.64,21,21,0,0,0-4.13-7.78,17.43,17.43,0,0,0-6.65-4.76,22.76,22.76,0,0,0-8.69-1.61q-9.94,0-15.2,6.3t-5.25,18.63a40,40,0,0,0,1.33,10.79,21.91,21.91,0,0,0,3.92,8,17.41,17.41,0,0,0,6.45,5,22.6,22.6,0,0,0,17.44,0Z"/><path class="cls-5" d="M576.17,266.36a31.89,31.89,0,0,1,11.63,2,22.82,22.82,0,0,1,13.73,13.94,31.45,31.45,0,0,1,1.82,10.86v51H582.48V298.3a20.42,20.42,0,0,0-1.34-7.57,16.83,16.83,0,0,0-3.57-5.67,14.71,14.71,0,0,0-5.25-3.5,17.25,17.25,0,0,0-6.37-1.19,18.84,18.84,0,0,0-6.8,1.26,17,17,0,0,0-5.81,3.71,19.09,19.09,0,0,0-4.06,5.81,17.31,17.31,0,0,0-1.55,7.29v45.67H526.86V268.46h20l.84,16.81a27.52,27.52,0,0,1,4-7.7,26.71,26.71,0,0,1,6.16-6,27,27,0,0,1,8.27-3.85A36.36,36.36,0,0,1,576.17,266.36Z"/><path class="cls-5" d="M624.36,283.59H609.79V268.46h14.57V246.05h19.47v22.41h17.65v15.13H643.83v39.78a3.48,3.48,0,0,0,3.92,3.93h13.73v16.81H637.39q-6.58,0-9.81-3.23t-3.22-9.8Z"/><path class="cls-2" d="M695.24,306.56v37.55H674.37V246.05h51.69a43.93,43.93,0,0,1,13.52,2,28.71,28.71,0,0,1,10.36,5.74,25.21,25.21,0,0,1,6.59,9.32,32.66,32.66,0,0,1,2.31,12.68q0,12-6.1,19.47T735.86,305a24.43,24.43,0,0,1,5.54,3.78,19,19,0,0,1,4,5.19l14.71,30.12h-22l-15-30.26a12.88,12.88,0,0,0-5.19-5.4,14.61,14.61,0,0,0-7.28-1.89Zm25.78-15q7.28,0,11.83-4.13t4.56-11.55q0-7.42-4.56-11.14T720.32,261H695.24v30.53Z"/><path class="cls-2" d="M773,246.05h76.06v15.13H793.86v23.67h48.33v14.71H793.86V329h55.19v15.13H773Z"/></svg>
