<svg id="Layer_1" data-name="Layer 1" xmlns="http://www.w3.org/2000/svg" viewBox="135 135 270 270"><defs><style>.cls-1{fill:#231f20;}.cls-2,.cls-3,.cls-4{fill:#fff;}.cls-3{opacity:0.7;}.cls-4{opacity:0.3;}</style></defs><path class="cls-1" d="M396.18,179.39V360.61a35.58,35.58,0,0,1-35.58,35.56H179.4a35.56,35.56,0,0,1-35.58-35.56V179.39a35.56,35.56,0,0,1,35.58-35.56H360.6A35.58,35.58,0,0,1,396.18,179.39Z"/><polygon class="cls-2" points="396.18 235.56 396.18 243.97 311.1 213.37 301.99 210.1 287.31 204.83 278.2 201.54 266.44 197.32 197.87 245.32 197.87 349.92 248.73 349.92 248.73 357.85 189.95 357.85 189.95 241.21 265.25 188.5 286.13 196.01 295.24 199.28 309.9 204.55 319.01 207.84 396.18 235.56"/><polygon class="cls-3" points="396.18 217.96 396.18 226.34 327.7 201.75 318.59 198.46 303.93 193.2 295.24 199.28 286.13 196.01 302.75 184.37 326.52 192.91 335.63 196.18 396.18 217.96"/><polygon class="cls-4" points="396.18 201.68 396.18 210.08 343.07 190.99 335.63 196.18 326.52 192.91 341.89 182.15 396.18 201.68"/></svg>
